<?xml version="1.0" standalone="no"?>
<!DOCTYPE svg PUBLIC "-//W3C//DTD SVG 20010904//EN"
 "http://www.w3.org/TR/2001/REC-SVG-20010904/DTD/svg10.dtd">
<svg version="1.0" xmlns="http://www.w3.org/2000/svg"
 width="512.000000pt" height="512.000000pt" viewBox="0 0 512.000000 512.000000"
 preserveAspectRatio="xMidYMid meet">

<g transform="translate(0.000000,512.000000) scale(0.100000,-0.100000)"
fill="#ffffff" stroke="none">
<path d="M4825 5107 c-48 -22 -93 -80 -100 -129 -3 -24 -5 -250 -3 -503 3
-443 4 -461 24 -495 63 -107 222 -107 283 0 21 37 21 47 21 532 l0 495 -22 33
c-13 18 -35 42 -50 53 -33 25 -113 32 -153 14z"/>
<path d="M380 4628 c-33 -17 -51 -35 -68 -68 l-22 -45 2 -627 c3 -615 3 -627
24 -654 76 -102 202 -102 278 0 21 27 21 39 23 659 l3 632 -23 40 c-25 45 -92
85 -142 85 -17 0 -51 -10 -75 -22z"/>
<path d="M1100 4639 c-14 -6 -36 -20 -48 -32 -47 -44 -52 -66 -52 -244 0 -164
1 -169 25 -206 78 -115 257 -85 294 48 14 50 14 268 1 317 -27 97 -131 152
-220 117z"/>
<path d="M4040 4579 c-14 -6 -36 -20 -48 -32 -51 -47 -52 -57 -52 -355 0 -273
0 -280 23 -313 24 -37 97 -79 137 -79 36 0 110 40 133 71 10 14 22 43 27 65
13 56 12 480 -1 529 -26 94 -131 149 -219 114z"/>
<path d="M2886 4360 c-38 -12 -85 -57 -102 -97 -21 -48 -21 -1368 0 -1416 54
-127 227 -138 294 -19 l22 40 0 686 c0 663 -1 688 -20 725 -33 66 -123 103
-194 81z"/>
<path d="M1100 3779 c-14 -6 -36 -20 -48 -32 -51 -47 -52 -55 -52 -382 0 -332
1 -341 56 -384 92 -72 232 -27 263 84 15 53 15 546 0 600 -26 95 -130 149
-219 114z"/>
<path d="M4365 3586 c-16 -8 -132 -117 -256 -242 -191 -194 -231 -240 -262
-301 -198 -382 8 -843 423 -949 85 -22 235 -22 320 0 121 32 207 82 300 176
141 140 195 273 194 470 0 98 -4 127 -28 195 -15 44 -44 107 -63 140 -48 79
-442 480 -498 506 -47 22 -89 23 -130 5z m363 -716 c38 -78 38 -190 0 -272
-119 -256 -474 -256 -600 1 -18 37 -22 63 -23 131 0 127 22 167 186 335 l133
136 138 -138 c99 -99 146 -154 166 -193z"/>
<path d="M2126 3568 c-24 -14 -49 -40 -63 -67 l-23 -44 0 -716 0 -717 23 -44
c12 -24 34 -52 48 -63 57 -41 152 -37 202 8 60 57 58 16 55 824 -3 729 -3 740
-24 767 -35 48 -70 67 -126 71 -42 3 -61 -1 -92 -19z"/>
<path d="M659 2710 c-52 -9 -74 -28 -300 -257 -196 -199 -208 -213 -253 -303
-73 -148 -91 -277 -60 -428 39 -197 170 -369 350 -460 104 -53 166 -66 299
-66 105 0 130 3 200 28 44 15 105 43 137 62 327 199 417 637 194 948 -68 94
-445 463 -481 471 -16 4 -34 8 -40 9 -5 1 -26 -1 -46 -4z m174 -538 c165 -166
182 -197 182 -322 0 -73 -4 -93 -28 -141 -32 -67 -99 -132 -165 -162 -72 -32
-189 -30 -262 4 -80 37 -125 81 -162 157 -28 57 -33 76 -33 142 1 118 28 166
187 327 73 73 135 133 138 133 3 0 67 -62 143 -138z"/>
<path d="M2884 2490 c-41 -13 -101 -80 -109 -122 -4 -18 -5 -111 -3 -205 3
-155 5 -174 24 -199 76 -102 202 -102 278 0 19 25 21 44 24 216 3 173 2 192
-17 228 -35 68 -123 104 -197 82z"/>
<path d="M2381 1509 c-29 -11 -327 -303 -418 -409 -70 -81 -132 -198 -154
-290 -17 -71 -17 -230 0 -300 76 -310 363 -525 676 -507 175 11 314 73 435
196 165 168 228 400 170 625 -38 150 -72 198 -315 444 -121 123 -232 230 -247
238 -30 16 -111 18 -147 3z m216 -531 c120 -122 143 -151 161 -201 60 -160
-11 -338 -167 -414 -47 -24 -69 -28 -136 -28 -136 0 -238 63 -297 183 -28 57
-33 76 -33 142 1 118 28 166 187 327 73 73 135 133 138 133 4 0 70 -64 147
-142z"/>
</g>
</svg>
