<?xml version="1.0" standalone="no"?>
<!DOCTYPE svg PUBLIC "-//W3C//DTD SVG 20010904//EN"
 "http://www.w3.org/TR/2001/REC-SVG-20010904/DTD/svg10.dtd">
<svg version="1.0" xmlns="http://www.w3.org/2000/svg"
 width="512.000000pt" height="512.000000pt" viewBox="0 0 512.000000 512.000000"
 preserveAspectRatio="xMidYMid meet">

<g transform="translate(0.000000,512.000000) scale(0.100000,-0.100000)"
fill="#000000" stroke="none">
<path d="M960 5098 c-90 -46 -75 61 -211 -1486 l-120 -1373 23 -47 c13 -25 36
-55 51 -66 28 -21 41 -21 708 -24 373 -1 679 -6 679 -10 0 -4 -43 -423 -95
-932 -52 -509 -95 -945 -97 -970 -3 -70 10 -106 52 -144 66 -59 154 -60 215
-3 38 35 2289 3371 2312 3427 31 71 -8 168 -81 201 -39 17 -79 19 -702 19
l-662 0 154 613 c84 336 154 633 154 658 0 51 -26 98 -73 133 -28 21 -30 21
-1145 24 l-1117 2 -45 -22z m1854 -920 c-84 -337 -154 -634 -154 -659 0 -51
26 -98 73 -133 28 -21 39 -21 652 -26 l624 -5 -856 -1272 c-472 -700 -858
-1271 -859 -1270 -1 1 31 328 72 727 41 399 72 740 69 758 -8 45 -68 109 -113
122 -23 6 -279 10 -689 10 -359 0 -653 3 -653 8 -1 17 202 2328 206 2340 3 9
190 12 892 12 l890 0 -154 -612z"/>
<path d="M1495 4025 c-50 -18 -91 -62 -104 -112 -15 -61 -45 -435 -37 -476 9
-48 63 -103 116 -117 72 -19 152 17 187 83 16 32 52 341 53 455 0 68 -23 117
-69 147 -48 31 -97 38 -146 20z"/>
</g>
</svg>
