<?xml version="1.0" standalone="no"?>
<!DOCTYPE svg PUBLIC "-//W3C//DTD SVG 20010904//EN"
 "http://www.w3.org/TR/2001/REC-SVG-20010904/DTD/svg10.dtd">
<svg version="1.0" xmlns="http://www.w3.org/2000/svg"
 width="512.000000pt" height="512.000000pt" viewBox="0 0 512.000000 512.000000"
 preserveAspectRatio="xMidYMid meet">

<g transform="translate(0.000000,512.000000) scale(0.100000,-0.100000)"
fill="#000000" stroke="none">
<path d="M2156 4309 c-431 -60 -815 -335 -1009 -724 -88 -177 -128 -343 -132
-550 l-3 -140 -77 -7 c-219 -20 -457 -133 -619 -293 -374 -368 -420 -957 -106
-1373 144 -192 341 -325 579 -390 l96 -27 1540 0 c1450 0 1545 1 1625 18 541
116 934 509 1047 1047 22 105 24 360 4 470 -46 257 -163 487 -345 677 -188
198 -387 314 -654 380 -93 24 -128 27 -272 27 -91 1 -185 -1 -209 -4 l-44 -4
-18 51 c-28 82 -108 230 -172 317 -189 257 -464 434 -787 507 -100 23 -340 33
-444 18z m406 -348 c223 -58 417 -186 550 -361 70 -92 144 -247 173 -365 22
-88 30 -104 64 -137 54 -52 92 -56 210 -27 82 21 119 24 256 23 143 -1 169 -4
250 -28 323 -97 566 -327 671 -634 183 -538 -129 -1117 -685 -1271 l-96 -26
-1520 0 -1520 0 -77 26 c-124 43 -204 93 -298 188 -94 95 -142 175 -181 301
-30 97 -33 280 -6 380 55 198 194 367 378 460 118 60 262 84 406 68 105 -11
147 -2 192 44 50 51 54 83 29 248 -19 130 -20 156 -9 253 25 229 113 418 270
581 152 157 325 250 538 291 105 20 301 13 405 -14z"/>
</g>
</svg>
