<?xml version="1.0" standalone="no"?>
<!DOCTYPE svg PUBLIC "-//W3C//DTD SVG 20010904//EN"
 "http://www.w3.org/TR/2001/REC-SVG-20010904/DTD/svg10.dtd">
<svg version="1.0" xmlns="http://www.w3.org/2000/svg"
 width="512.000000pt" height="512.000000pt" viewBox="0 0 512.000000 512.000000"
 preserveAspectRatio="xMidYMid meet">

<g transform="translate(0.000000,512.000000) scale(0.100000,-0.100000)">
<path d="M1425 4961 c-16 -10 -38 -27 -48 -38 -29 -33 -369 -872 -374 -924
-16 -149 171 -234 276 -125 21 23 77 149 206 465 98 238 179 450 182 470 6 47
-30 118 -76 148 -43 29 -123 31 -166 4z"/>
<path d="M3863 3699 c-23 -11 -49 -32 -58 -45 -9 -14 -95 -217 -192 -452 -194
-472 -199 -492 -154 -565 55 -89 188 -102 258 -25 13 13 104 224 204 468 166
406 181 448 177 491 -8 83 -79 149 -160 149 -18 0 -52 -9 -75 -21z"/>
<path d="M491 3604 c-121 -32 -248 -130 -304 -232 -14 -26 -60 -138 -102 -250
-85 -226 -97 -293 -76 -404 26 -130 110 -255 216 -323 45 -29 299 -132 445
-181 78 -26 224 -24 304 5 112 40 211 122 268 221 14 25 61 137 103 249 65
173 77 216 82 285 13 188 -89 376 -253 463 -63 33 -355 146 -439 169 -64 18
-175 17 -244 -2z m336 -380 c98 -37 190 -76 206 -86 34 -24 67 -87 67 -128 0
-31 -92 -293 -136 -385 -27 -57 -71 -91 -129 -100 -35 -6 -68 4 -230 65 -121
45 -200 81 -219 98 -34 32 -56 80 -56 121 0 35 131 385 158 420 25 34 80 61
124 61 22 0 112 -28 215 -66z"/>
<path d="M2363 3009 c-67 -20 -81 -46 -271 -513 -100 -245 -182 -458 -182
-473 0 -39 39 -112 72 -137 36 -26 125 -33 164 -13 16 8 39 26 51 39 31 33
383 898 383 940 -1 110 -111 190 -217 157z"/>
<path d="M4875 2961 c-16 -10 -37 -27 -46 -37 -9 -10 -63 -129 -120 -264 -83
-195 -104 -254 -103 -291 2 -144 184 -213 281 -107 13 13 69 132 125 263 87
206 102 248 102 296 1 46 -4 62 -28 93 -16 21 -44 44 -62 52 -47 20 -113 17
-149 -5z"/>
<path d="M3909 2260 c-80 -12 -124 -33 -330 -150 -132 -75 -199 -121 -239
-160 -133 -133 -181 -330 -121 -506 28 -83 220 -410 277 -473 148 -161 385
-206 577 -110 125 63 367 210 413 252 62 56 106 122 135 203 29 80 31 226 5
304 -22 68 -206 391 -262 464 -100 127 -289 200 -455 176z m153 -346 c36 -19
60 -52 164 -234 81 -140 89 -160 89 -206 -1 -86 -21 -106 -222 -223 -204 -120
-237 -129 -312 -89 -40 21 -54 41 -143 193 -54 94 -104 187 -110 208 -13 43 0
98 32 139 22 29 352 224 390 231 33 6 78 -2 112 -19z"/>
<path d="M1390 1460 c-190 -34 -346 -179 -395 -367 -18 -70 -21 -482 -4 -565
36 -171 169 -316 337 -368 57 -18 93 -20 317 -20 225 0 260 2 318 20 168 52
304 205 337 379 13 72 13 466 -1 533 -19 93 -66 177 -138 248 -75 74 -149 114
-249 136 -74 15 -441 18 -522 4z m472 -330 c45 -13 105 -77 113 -122 3 -18 5
-124 3 -235 -3 -224 -5 -231 -78 -281 -32 -21 -41 -22 -255 -22 -214 0 -223 1
-255 23 -73 49 -75 54 -78 297 -3 202 -2 222 17 258 21 40 55 69 100 82 39 12
390 12 433 0z"/>
</g>
</svg>
